<svg xmlns="http://www.w3.org/2000/svg" viewBox="0 0 64 64" width="64" height="64">
  <rect width="64" height="64" rx="12" fill="#2b2724"/>
  <g stroke="#f4f1ea" stroke-opacity="0.42" stroke-width="1.4" stroke-linecap="round">
    <line x1="32" y1="32" x2="21.9" y2="23.6"/>
    <line x1="32" y1="32" x2="42.1" y2="22.3"/>
    <line x1="32" y1="32" x2="17.9" y2="36.4"/>
    <line x1="32" y1="32" x2="45.2" y2="38.2"/>
    <line x1="32" y1="32" x2="27.2" y2="43.4"/>
    <line x1="32" y1="32" x2="37.7" y2="44.8"/>
    <line x1="32" y1="32" x2="32" y2="21.4"/>
    <line x1="21.9" y1="23.6" x2="17.9" y2="36.4"/>
    <line x1="42.1" y1="22.3" x2="45.2" y2="38.2"/>
  </g>
  <g stroke="#f4f1ea" stroke-opacity="0.9" stroke-width="0.8">
    <circle cx="32"   cy="32"   r="5.6" fill="#c75b4a"/>
    <circle cx="21.9" cy="23.6" r="3.2" fill="#3a7d8c"/>
    <circle cx="42.1" cy="22.3" r="3.4" fill="#d39a3e"/>
    <circle cx="17.9" cy="36.4" r="2.9" fill="#8a6d9e"/>
    <circle cx="45.2" cy="38.2" r="3.2" fill="#6b8e5a"/>
    <circle cx="27.2" cy="43.4" r="3.0" fill="#b5697e"/>
    <circle cx="37.7" cy="44.8" r="2.8" fill="#bf8b4a"/>
    <circle cx="32"   cy="21.4" r="2.4" fill="#b8b0a4"/>
  </g>
</svg>
